# xmcd
#
# Track frame offsets:
#	150
#	17725
#	37733
#	53007
#	68656
#	85391
#	109317
#	131941
#	148251
#	157749
#	183472
#	196463
#	218109
#	236221
#	249696
#	267315
#	284419
#	300017
#
# Disc length: 4284 seconds
#
# Revision: 0
# Processed by: cddbd v1.5.2PL0 Copyright (c) Steve Scherf et al.
# Submitted via: EasyCDDAExtractor 11.0.2.1
#
DISCID=0510ba12
DTITLE=Various Artist - Best Pop Hits 100 CD2
DYEAR=1900
DGENRE=
TTITLE0=Blondie - The Tide Is High
TTITLE1=Culture Club - Do You Really Want To Hurt Me
TTITLE2=Sheena Easton - Morning Train
TTITLE3=Duran Duran - Hungry Like The Wolf
TTITLE4=Kim Carnes - Bette Davis Eyes
TTITLE5=Al Stewart - The Palace Of Versailles
TTITLE6=Billy Idol - Mony Mony
TTITLE7=J Geils Band - Come Back
TTITLE8=Don McLean - Wonderful Baby
TTITLE9=Spandau Ballet - True
TTITLE10=Julie London - I Left Heart In San Fransisco
TTITLE11=U.F.O. - Try Me
TTITLE12=Suzi Quatro and Chris Norman - Stumblin In
TTITLE13=Dr. Hook - Sexy Eyes
TTITLE14=Kenny Rogers - Lady
TTITLE15=Billy Squier - Everybody Wants You
TTITLE16=The Knack - My Sharona
TTITLE17=Klaatu - Prelude
EXTD=
EXTT0=
EXTT1=
EXTT2=
EXTT3=
EXTT4=
EXTT5=
EXTT6=
EXTT7=
EXTT8=
EXTT9=
EXTT10=
EXTT11=
EXTT12=
EXTT13=
EXTT14=
EXTT15=
EXTT16=
EXTT17=
PLAYORDER=
